<svg xmlns="http://www.w3.org/2000/svg" width="200" height="200" viewBox="0 0 200 200">
  <rect width="200" height="200" fill="transparent"/>
  <g fill="#fff" opacity="0.6">
    <circle cx="10" cy="20" r="0.5"/>
    <circle cx="30" cy="45" r="0.7"/>
    <circle cx="55" cy="15" r="0.4"/>
    <circle cx="80" cy="60" r="0.6"/>
    <circle cx="110" cy="25" r="0.5"/>
    <circle cx="140" cy="50" r="0.7"/>
    <circle cx="170" cy="30" r="0.4"/>
    <circle cx="185" cy="80" r="0.6"/>
    <circle cx="20" cy="90" r="0.5"/>
    <circle cx="45" cy="110" r="0.7"/>
    <circle cx="75" cy="95" r="0.4"/>
    <circle cx="105" cy="120" r="0.6"/>
    <circle cx="135" cy="100" r="0.5"/>
    <circle cx="160" cy="130" r="0.7"/>
    <circle cx="190" cy="115" r="0.4"/>
    <circle cx="15" cy="150" r="0.6"/>
    <circle cx="40" cy="175" r="0.5"/>
    <circle cx="70" cy="160" r="0.7"/>
    <circle cx="95" cy="185" r="0.4"/>
    <circle cx="125" cy="155" r="0.6"/>
    <circle cx="155" cy="180" r="0.5"/>
    <circle cx="180" cy="165" r="0.7"/>
    <circle cx="50" cy="5" r="0.3"/>
    <circle cx="95" cy="5" r="0.3"/>
    <circle cx="150" cy="5" r="0.3"/>
    <circle cx="5" cy="70" r="0.3"/>
    <circle cx="195" cy="45" r="0.3"/>
    <circle cx="5" cy="140" r="0.3"/>
    <circle cx="195" cy="170" r="0.3"/>
  </g>
</svg>
